<svg xmlns="http://www.w3.org/2000/svg" viewBox="0 0 512 512"><defs><linearGradient id="bg" x1="0" y1="0" x2="1" y2="1"><stop stop-color="#2a3039"/><stop offset=".48" stop-color="#10141b"/><stop offset="1" stop-color="#05070b"/></linearGradient><linearGradient id="red" x1="0" y1="0" x2="0" y2="1"><stop stop-color="#ff7079"/><stop offset=".48" stop-color="#ff3048"/><stop offset="1" stop-color="#d60023"/></linearGradient><linearGradient id="metal" x1="0" y1="0" x2="1" y2="1"><stop stop-color="#fff"/><stop offset=".5" stop-color="#aeb6c2"/><stop offset="1" stop-color="#f9fbff"/></linearGradient></defs><rect x="22" y="22" width="468" height="468" rx="112" fill="url(#bg)" stroke="#4d5562" stroke-width="7"/><rect x="29" y="29" width="454" height="454" rx="105" fill="none" stroke="#ff2144" stroke-opacity=".55" stroke-width="3"/><path d="M102 286a160 160 0 0 0 308 18" fill="none" stroke="url(#metal)" stroke-width="27" stroke-linecap="round"/><path d="M102 286a160 160 0 0 1 24-78" fill="none" stroke="#ff2947" stroke-width="27" stroke-linecap="round"/><path d="M154 270 229 87c9-22 43-22 52 0l77 183c7 16-1 26-18 26h-48l-38-100-39 100h-44c-18 0-24-11-17-26Z" fill="url(#red)"/><path d="M237 277c0-9 7-16 16-16h16c9 0 16 7 16 16v71h43c15 0 22 18 12 28l-64 67c-8 9-22 9-30 0l-64-67c-10-10-3-28 12-28h43v-71Z" fill="url(#metal)"/></svg>