<svg xmlns="http://www.w3.org/2000/svg" viewBox="0 0 512 512"><defs><linearGradient id="bg" x1="0" y1="0" x2="1" y2="1"><stop stop-color="#18243a"/><stop offset=".52" stop-color="#0b1019"/><stop offset="1" stop-color="#05070b"/></linearGradient><linearGradient id="top" x1="0" y1="0" x2="1" y2="1"><stop stop-color="#9fd7ff"/><stop offset="1" stop-color="#5b8fff"/></linearGradient><linearGradient id="left" x1="0" y1="0" x2="1" y2="1"><stop stop-color="#4c7df0"/><stop offset="1" stop-color="#2355c6"/></linearGradient><linearGradient id="right" x1="0" y1="0" x2="1" y2="1"><stop stop-color="#79bcff"/><stop offset="1" stop-color="#367bea"/></linearGradient></defs><rect x="20" y="20" width="472" height="472" rx="116" fill="url(#bg)" stroke="#334968" stroke-width="8"/><path d="M256 112 382 184 256 256 130 184Z" fill="url(#top)"/><path d="M130 184 256 256 256 404 130 332Z" fill="url(#left)"/><path d="M382 184 256 256 256 404 382 332Z" fill="url(#right)"/><path d="M256 112 382 184 256 256 130 184 256 112Zm0 144v148m126-220v148L256 404 130 332V184" fill="none" stroke="#d8efff" stroke-width="10" stroke-linejoin="round"/><circle cx="256" cy="256" r="18" fill="#eaf7ff"/></svg>